<?xml version="1.0" encoding="utf-8"?>
<!-- Generator: Adobe Illustrator 19.2.1, SVG Export Plug-In . SVG Version: 6.00 Build 0)  -->
<svg version="1.1" id="Layer_1" xmlns="http://www.w3.org/2000/svg" xmlns:xlink="http://www.w3.org/1999/xlink" x="0px" y="0px"
	 viewBox="0 0 143.9 156.5" style="enable-background:new 0 0 143.9 156.5;" xml:space="preserve">
<style type="text/css">
	.st0{fill:none;stroke:#95A5A4;stroke-width:2;stroke-miterlimit:10;}
	.st1{fill:none;stroke:#95A5A4;stroke-width:2;stroke-linecap:round;stroke-linejoin:round;stroke-miterlimit:10;}
	.st2{fill:none;stroke:#95A5A4;stroke-linecap:round;stroke-linejoin:round;stroke-miterlimit:10;}
	.st3{fill:#95A5A4;}
</style>
<path class="st0" d="M75.1,1C49.6,1,28.9,19.1,28.9,41h92.5C121.4,19.1,100.7,1,75.1,1z"/>
<path class="st1" d="M52.7,111.4c9.2,7.3,34.2,5.9,41.1,0"/>
<path class="st2" d="M64,120.7c0,0,11.2,2,18.9,0"/>
<path class="st0" d="M120.8,63H28.6c-1.6,0-3-1.4-3-3V44.2c0-1.7,1.4-3,3-3h92.3c1.7,0,3,1.3,3,3V60C123.8,61.6,122.5,63,120.8,63z"
	/>
<path class="st0" d="M27.1,62c0,0-2.5,4.5-2.5,25.4c10.5-7,12.5-15.9,31-17.4c-4.6,3.3-5.7,6.4-8.5,11c10.5-3,21-14,56.5-18
	c1.5,2.5,21,11.9,19.5,34.9c2.4-15.9,4.4-27.9,0.3-35.9"/>
<path class="st1" d="M123,96.2v11c-0.2,11.8-20.4,31-45.4,31h-8.6c-24.9,0-43.7-18.8-43.4-29l-1-22.8"/>
<path class="st1" d="M27.8,153.2c1.9-14.9,26.9-15.6,26.9-15.6c0,9.8,8,17.9,17.9,17.9s18.1-8.1,18.1-17.9c0,0,27.5-0.6,29.4,15.8"
	/>
<circle class="st3" cx="64.9" cy="85.7" r="3.4"/>
<circle class="st3" cx="84" cy="85.7" r="3.4"/>
<ellipse class="st1" cx="90.8" cy="85.9" rx="15.1" ry="18.3"/>
<path class="st1" d="M69,70.7c4,3.3,6.7,8.9,6.7,15.2c0,10.1-6.8,18.3-15.1,18.3s-15.1-8.2-15.1-18.3c0-1.2,0.1-2.4,0.3-3.6"/>
</svg>
