<?xml version="1.0" encoding="utf-8"?>
<!-- Generator: Adobe Illustrator 19.2.1, SVG Export Plug-In . SVG Version: 6.00 Build 0)  -->
<svg version="1.1" id="Layer_1" xmlns="http://www.w3.org/2000/svg" xmlns:xlink="http://www.w3.org/1999/xlink" x="0px" y="0px"
	 viewBox="0 0 143.9 156.5" style="enable-background:new 0 0 143.9 156.5;" xml:space="preserve">
<style type="text/css">
	.st0{fill:none;stroke:#95A5A4;stroke-width:2;stroke-linecap:round;stroke-linejoin:round;stroke-miterlimit:10;}
	.st1{fill:none;stroke:#95A5A4;stroke-linecap:round;stroke-linejoin:round;stroke-miterlimit:10;}
	.st2{fill:#95A5A4;}
</style>
<g>
	<path class="st0" d="M53.2,123.4c9.2,7.3,34.2,5.9,41.1,0"/>
	<path class="st1" d="M64.4,132.8c0,0,11.2,2,18.9,0"/>
	<path class="st0" d="M28.2,153.3c1.9-14.9,26.9-15.6,26.9-15.6c0,9.8,8,17.9,17.9,17.9s18.1-8.1,18.1-17.9c0,0,27.5-0.6,29.4,15.8"
		/>
	<circle class="st2" cx="63.4" cy="71.7" r="3.4"/>
	<circle class="st2" cx="82.4" cy="71.7" r="3.4"/>
	<ellipse class="st0" cx="89.2" cy="72" rx="15.1" ry="18.3"/>
	<g>
		<path class="st0" d="M-12.1,74.4c0,0.2,0,0.4,0,0.5c-3.7,2.5,3.7,8.1,3.7,14.7c0,8.9,4.8,16.1,10.8,16.1c6,0,10.8-7.2,10.8-16.1
			c0-2.3-0.3-4.4-0.9-6.4c4.2-1.3,7.2-4.7,7.2-8.8c0-5.2-4.8-9.3-10.8-9.3C2.7,65-12.1,69.2-12.1,74.4z"/>
		<path class="st0" d="M156.6,75.4c0.5-1.1,0.8-2.2,0.8-3.5c0-5.2-1.8-4.3-7.8-4.3c-0.1,0-0.3,0-0.4,0c1.7-1.7,1.8-3.8,1.8-6.2
			c0-3.4-2.1-6.4-5.2-8c0.8-0.7,1.5-1.6,1.9-2.6c2.1-4.7-0.5-10.5-6-13c-1.7-0.8-4.4-7.1-6.1-7.1c0.8-1.3,1.2-2.7,1.2-4.3
			c0-5.2-5.8-18.3-11.8-18.3c-4.1,0-7.7,2-9.5,4.9c-0.2-3.9-9.9-2.6-14.3-4.3c-2-0.8-4.1-1-6.1-0.7c0-0.4,0.1-0.8,0.1-1.2
			c0-8.6-8-15.6-18-15.6c-6.1,0-11.4,2.6-14.7,6.6c-3.3-4-8.6-6.6-14.7-6.6c-9.9,0-18,7-18,15.6c0,3.4-10.7,16.6-8.5,19.2
			c-4.6,1-13.1,4.7-13.1,9c0,0.7,0.1,1.3,0.2,1.9c-0.1,0-0.2,0-0.2,0c-6,0-5.8,4.2-5.8,9.3c0,0.1,0,0.2,0,0.4
			c-0.9-0.2-1.9-0.4-2.9-0.4c-6,0-10.8,4.2-10.8,9.3c0,5.2-9.8,9.3,22.8,9.3c6,0,10.8-4.2,10.8-9.3c0-0.1,0-0.2,0-0.4
			c0.9,0.2,1.9,0.4,2.9,0.4c6,0,10.8-4.2,10.8-9.3c0-0.7-0.1-1.3-0.2-1.9c0.1,0,0.2,0,0.2,0c6,0,10.8-4.2,10.8-9.3
			c0-0.9-0.2-1.8-0.5-2.7c0.5,0,1,0.1,1.5,0.1c6.1,0,11.4-2.6,14.7-6.6c3.3,4,8.6,6.6,14.7,6.6c3.9,0,7.6-1.1,10.5-3
			c1,2.9,3.4,5.4,6.8,6.7c5,1.9,10.2,0.4,12.6-3.4c0.2,5,4.9,9,10.8,9c0.4,0,0.7,0,1,0c0,0.1-0.1,0.1-0.1,0.1
			c-2,4.4,0.2,9.8,5.1,12.5c-2.3,1.7-3.7,4.2-3.7,7c0,5.2,4.8,9.3,10.8,9.3c0.2,0,0.3,0,0.4,0c-1.7,1.7-2.8,3.8-2.8,6.2
			c0,4.5,3.6,8.2,8.5,9.1c-0.5,1.1-0.8,2.2-0.8,3.5c0,5.2,4.8,9.3,10.8,9.3c6,0,17.8-9.2,17.8-14.3
			C165.1,80.1,161.5,76.4,156.6,75.4z"/>
	</g>
	<path class="st0" d="M9.8,37.1c0,5.6,4.5,10,10.1,10c5.6,0,10.1-4.4,10.1-10"/>
	<path class="st0" d="M-1.8,85.7c5.5-0.7,9.4-5.7,8.7-11.2C6.2,69,1.3,65-4.2,65.7"/>
	<path class="st0" d="M73.3,8.3c-0.5,5.6,3.7,10.4,9.2,10.8c5.6,0.5,10.4-3.6,10.9-9.1"/>
	<path class="st0" d="M114.8,35.6c2.3-3.2,1.1-7.8-2.4-10.3c-3.6-2.6-8.3-2.1-10.5,1.1"/>
	<path class="st0" d="M139.4,49.4c-3.9-0.3-7.2,3.1-7.5,7.5c-0.3,4.4,2.5,8.2,6.4,8.4"/>
	<path class="st0" d="M150.8,88.6c2.3-3.2,1.1-7.8-2.4-10.3c-3.6-2.6-8.3-2.1-10.5,1.1"/>
	<path class="st0" d="M50.6,8.4c-3.4,1.8-4.5,6.5-2.4,10.3c2.1,3.9,6.5,5.5,9.9,3.7"/>
	<ellipse class="st0" cx="58" cy="71.3" rx="15.1" ry="18.3"/>
	<path class="st0" d="M57.5,98.7c0.1,8.8,7.2,15.7,16,15.6c8.8-0.1,15.8-7.1,15.7-15.8"/>
</g>
</svg>
